<mxfile host="app.diagrams.net" agent="Mozilla/5.0 (Windows NT 10.0; Win64; x64) AppleWebKit/537.36 (KHTML, like Gecko) Chrome/128.0.0.0 Safari/537.36" version="24.7.6">
  <diagram name="Page-1" id="a2b5qCPTmMiFwGbyTZ0i">
    <mxGraphModel dx="1537" dy="808" grid="1" gridSize="10" guides="1" tooltips="1" connect="1" arrows="1" fold="1" page="1" pageScale="1" pageWidth="850" pageHeight="1100" math="0" shadow="0">
      <root>
        <mxCell id="0" />
        <mxCell id="1" parent="0" />
        <mxCell id="m8E0BnU3pZLaH1Bb0ykt-1" value="D" style="swimlane;startSize=0;" parent="1" vertex="1">
          <mxGeometry x="240" y="200" width="400" height="560" as="geometry" />
        </mxCell>
        <mxCell id="m8E0BnU3pZLaH1Bb0ykt-3" value="SIMPONIS" style="text;html=1;align=center;verticalAlign=middle;resizable=0;points=[];autosize=1;strokeColor=none;fillColor=none;fontSize=20;" parent="m8E0BnU3pZLaH1Bb0ykt-1" vertex="1">
          <mxGeometry x="140" y="15" width="120" height="40" as="geometry" />
        </mxCell>
        <mxCell id="m8E0BnU3pZLaH1Bb0ykt-7" value="&lt;font style=&quot;font-size: 15px;&quot;&gt;Login&lt;/font&gt;" style="ellipse;whiteSpace=wrap;html=1;" parent="m8E0BnU3pZLaH1Bb0ykt-1" vertex="1">
          <mxGeometry x="90" y="80" width="220" height="80" as="geometry" />
        </mxCell>
        <mxCell id="m8E0BnU3pZLaH1Bb0ykt-14" value="&lt;span style=&quot;font-size: 15px;&quot;&gt;Melihat Data Siswa Dan&amp;nbsp; Riwayat Pelanggaran&lt;/span&gt;" style="ellipse;whiteSpace=wrap;html=1;" parent="m8E0BnU3pZLaH1Bb0ykt-1" vertex="1">
          <mxGeometry x="90" y="200" width="220" height="80" as="geometry" />
        </mxCell>
        <mxCell id="m8E0BnU3pZLaH1Bb0ykt-17" value="&lt;span style=&quot;font-size: 15px;&quot;&gt;Melihat Jenis Pelanggaran&lt;/span&gt;" style="ellipse;whiteSpace=wrap;html=1;" parent="m8E0BnU3pZLaH1Bb0ykt-1" vertex="1">
          <mxGeometry x="90" y="320" width="220" height="80" as="geometry" />
        </mxCell>
        <mxCell id="m8E0BnU3pZLaH1Bb0ykt-25" value="&lt;span style=&quot;font-size: 15px;&quot;&gt;Memberikan Poin&amp;nbsp;&lt;/span&gt;" style="ellipse;whiteSpace=wrap;html=1;" parent="m8E0BnU3pZLaH1Bb0ykt-1" vertex="1">
          <mxGeometry x="90" y="440" width="220" height="80" as="geometry" />
        </mxCell>
        <mxCell id="m8E0BnU3pZLaH1Bb0ykt-26" value="" style="endArrow=none;html=1;rounded=0;entryX=0.076;entryY=0.24;entryDx=0;entryDy=0;entryPerimeter=0;" parent="m8E0BnU3pZLaH1Bb0ykt-1" target="m8E0BnU3pZLaH1Bb0ykt-25" edge="1">
          <mxGeometry width="50" height="50" relative="1" as="geometry">
            <mxPoint x="-60" y="170" as="sourcePoint" />
            <mxPoint x="122" y="350" as="targetPoint" />
          </mxGeometry>
        </mxCell>
        <mxCell id="m8E0BnU3pZLaH1Bb0ykt-4" value="Guru" style="shape=umlActor;verticalLabelPosition=bottom;verticalAlign=top;html=1;outlineConnect=0;" parent="1" vertex="1">
          <mxGeometry x="120" y="341" width="55" height="110" as="geometry" />
        </mxCell>
        <mxCell id="m8E0BnU3pZLaH1Bb0ykt-12" value="" style="endArrow=none;html=1;rounded=0;entryX=0;entryY=0.5;entryDx=0;entryDy=0;" parent="1" target="m8E0BnU3pZLaH1Bb0ykt-7" edge="1">
          <mxGeometry width="50" height="50" relative="1" as="geometry">
            <mxPoint x="180" y="370" as="sourcePoint" />
            <mxPoint x="440" y="550" as="targetPoint" />
          </mxGeometry>
        </mxCell>
        <mxCell id="m8E0BnU3pZLaH1Bb0ykt-15" value="" style="endArrow=none;html=1;rounded=0;entryX=0;entryY=0.5;entryDx=0;entryDy=0;" parent="1" target="m8E0BnU3pZLaH1Bb0ykt-14" edge="1">
          <mxGeometry width="50" height="50" relative="1" as="geometry">
            <mxPoint x="180" y="370" as="sourcePoint" />
            <mxPoint x="330" y="350" as="targetPoint" />
          </mxGeometry>
        </mxCell>
        <mxCell id="m8E0BnU3pZLaH1Bb0ykt-18" value="" style="endArrow=none;html=1;rounded=0;entryX=0;entryY=0;entryDx=0;entryDy=0;" parent="1" target="m8E0BnU3pZLaH1Bb0ykt-17" edge="1">
          <mxGeometry width="50" height="50" relative="1" as="geometry">
            <mxPoint x="180" y="370" as="sourcePoint" />
            <mxPoint x="340" y="450" as="targetPoint" />
          </mxGeometry>
        </mxCell>
      </root>
    </mxGraphModel>
  </diagram>
</mxfile>
